<svg id="圖層_1" data-name="圖層 1" xmlns="http://www.w3.org/2000/svg" viewBox="0 0 263.55 59.46"><path d="M11.41,5.66h3.16V.94l9.4.57c1.36.13,2.08.44,2.08.94s-.58.82-1.73,1.2v2h2.44L29.71,3l6.52,3.77c.65.51,1,.88,1,1.14s-.43.81-1.15,1.19v2.71l1.72-2.21L40.9,12l-.57,1.76H36.09v6.61l-9.18,1.25v-2H24.32V24.1h2.73L30,21.39l6.82,3.78c.65.44,1,.82,1,1.13s-.43.82-1.14,1.2v6.41l-9.55,1.2v-2.2H14.21l5.67,1.32c1.07.25,1.65.63,1.65,1.13s-.87.76-2.51,1l-1.23,3H31.07l4.23-4.22,6.17,4.22L40.33,41h-6c-1.29,2.39-2.58,4.47-3.73,6.23a13.93,13.93,0,0,1,4.59,2.08A4.19,4.19,0,0,1,37,52.6a5.45,5.45,0,0,1-1.65,3.59,5.84,5.84,0,0,1-3.66,1.57c-1,0-2.08-.76-3.23-2.2A21.35,21.35,0,0,0,25.47,53a23,23,0,0,1-6.67,3.52C14.06,58.08,8.11,58.83.79,59v-.69C7,57,11.62,55.12,14.71,52.6a17.85,17.85,0,0,0,3.23-3.52l-3.73-1.33-1.65,3.84L2.8,49.14l4-8.12h-6L0,39.33H7.61l1.86-3.72-7.25,1v-15l.87.26V13.78H.79L0,12H3.09V3.21ZM14.57,24.1V19.63H12.06v1.51l-7.9,1.07,6.53,1.89Zm0,7.11V25.8H11.48v5.41Zm0-19.19V7.36H12.06V12Zm0,5.91V13.78H12.06v4.15ZM20,46c.86-1.52,1.79-3.15,2.65-5H17.08l-2,4.72C16.86,45.87,18.51,45.93,20,46Zm4.37-34h2.59V7.36H24.32Zm0,5.91h2.59V13.78H24.32Zm2.8,13.28V25.8h-2.8v5.41Zm27-27.88c.86.26,1.37.63,1.37,1.07S54.6,5.29,53,5.66a81.5,81.5,0,0,1-3.23,9.06H54.6l5.1-5.41,7.53,5.41-1.36,1.76H63.22c-1.44,12-3.52,20.71-6.1,26.31A72.85,72.85,0,0,0,67,47.19v1.2a12.91,12.91,0,0,0-4.67,2.89c-1.15,1.32-2.15,3.9-3.15,7.67a56.8,56.8,0,0,1-8.9-7.36,48.21,48.21,0,0,1-15.5,7.87l-.57-1.2c5.16-4,9-8.24,11.4-12.83-2-4-3.37-10-4.16-17.93a27.28,27.28,0,0,1-3.3,2.95l-.57-.69A115,115,0,0,0,40.4,17.24C41,13,41.62,7.42,42.05.5ZM48.86,36a158.13,158.13,0,0,0,2.59-19.51H49A41.3,41.3,0,0,1,46.64,21a49.24,49.24,0,0,1-2.94,4A41.19,41.19,0,0,0,48.86,36Z" style="fill:#fff"/><path d="M89,2.64c1,.25,1.51.69,1.51,1.26s-1,1.2-2.87,1.76a81.78,81.78,0,0,1-7.68,13.22l3.59.56c.86.19,1.29.44,1.29.69,0,.51-.57,1-1.65,1.51V58.26L72,59.21v-31c-1.87,1.89-3.73,3.71-5.6,5.41l-.86-.5A102,102,0,0,0,71.9,17.74,143.25,143.25,0,0,0,75.84,0Zm40,19.7c1.37.37,2.08,1,2.08,1.76s-1.43,1.32-4.23,1.45L109.78,54.8h8.4L124.35,48l9.25,6.85L132,56.5H85.1l-.79-1.7h21l9-37.12Zm-16.29-21c1.58.19,2.37.63,2.37,1.33S114,3.9,112,4.66V15h5.59l5.89-6.35L132.24,15l-1.72,1.7h-44L85.67,15h14V.5ZM100.38,32.91c2.51,4.15,3.8,8.05,3.8,11.57a6.79,6.79,0,0,1-1.93,4.79,8.29,8.29,0,0,1-5.67,2.07,7.74,7.74,0,0,1-5-1.57,4.84,4.84,0,0,1-2-3.84A17.26,17.26,0,0,1,91,40.52a23.18,23.18,0,0,0,1.15-7.61c0-3.78-1.36-8.12-3.95-13l1.44-.25A68.88,68.88,0,0,1,100.38,32.91Z" style="fill:#fff"/><path d="M159.36,2.77c.86.19,1.36.56,1.36,1.13s-.86,1-2.51,1.51c-.79.88-1.58,1.7-2.29,2.46h27.26l6.17-6.67,9,6.67L196.6,9.56H180.67v20.2h.5l6.18-6.67,9,6.67-1.65,1.7h-14V54.05h3.59l6.17-6.86,9.26,6.86L198,55.81H154.55l-.57-1.2a11.27,11.27,0,0,1-1.15,1.45C150.25,58,146.16,59,140.56,59c-.29-3.27-.72-5.34-1.43-6.22s-2.23-1.64-4.45-2.33V48.64h10.91c.43-4.47.64-8.75.78-12.9A137.07,137.07,0,0,1,133,41l-1.08-.75a111.35,111.35,0,0,0,13.71-18.56,37.87,37.87,0,0,0-1.3-4.72,101.33,101.33,0,0,1-10.19,5.6l-.86-.51A59,59,0,0,0,141.64,12c0-.06.07-.12.07-.18a32.85,32.85,0,0,0-7.32-7.37L135.25,3a97.62,97.62,0,0,1,8.25,5.47c1-2.26,2.09-5,3.23-8.18Zm9.47,51.28V31.46h-9.76l-.86-1.7h10.62V9.56H156.56L155.77,8a51.22,51.22,0,0,1-6.45,5.66,28.77,28.77,0,0,1,3.37,4.47c2.87,4.66,4.37,11,4.37,19-.21,8.31-1.14,14-2.72,16.93Z" style="fill:#fff"/><path d="M207.79,20.76A6.3,6.3,0,0,1,210,24.29l4.8-10.76.86.5-.07.5,6.53,2V10.32h-7.32L214,8.62h8.11V.76l9.9.5c1.44.12,2.16.44,2.16.94s-.65.88-1.94,1.26V8.31l3.59-3.91,4.81,3.47V1.45l8.75,3.21h3.08L255.72,2l6.53,3.52c.87.44,1.3.82,1.3,1.14s-.51.63-1.44,1.26V54.05a4.75,4.75,0,0,1-2,3.59c-1.22.88-4.16,1.31-8.89,1.31-.29-2.76-1-4.59-2-5.47a7.62,7.62,0,0,0-3.59-2.14V50.4h7V35.11h-2.87a30.86,30.86,0,0,1-3,11.51c-2.3,4.6-6.1,8.75-11.56,12.59l-.79-.69a29.56,29.56,0,0,0,4.67-10.07c.14-.63.29-1.26.43-2H231.9V58l-10.11,1.2V46.44h-8.11l-.86-1.7h9V38.63l-6.46.95V15.73l-4.24,25.36a16.78,16.78,0,0,0-.21,2.64,3.79,3.79,0,0,0,.28,1.45c1.87,3,2.8,5.6,2.8,7.67a6,6,0,0,1-2,4.35,8.1,8.1,0,0,1-5,1.5,6.76,6.76,0,0,1-3.8-1.19,4.72,4.72,0,0,1-1.8-4,21.83,21.83,0,0,1,.94-4.84,10.54,10.54,0,0,0,1-4c0-1.39-1.36-2.33-3.94-3V40.52c2.15-.06,3.44-.5,3.87-1.38l4.45-9.82a5.33,5.33,0,0,1-2.94.88,2.8,2.8,0,0,1-2.44-1.38,5.83,5.83,0,0,1-.94-3.09,6.8,6.8,0,0,0-.64-2.83,10.63,10.63,0,0,0-2.15-3l.57-.94C203.56,18.94,206.43,19.57,207.79,20.76Zm3-16.42a6.38,6.38,0,0,1,2.58,5.22,5.2,5.2,0,0,1-1.65,3.65,6,6,0,0,1-4,1.51,3.56,3.56,0,0,1-3-1.57,6.45,6.45,0,0,1-1.29-3.46,7.16,7.16,0,0,0-.86-3.21,10.6,10.6,0,0,0-2.73-3.27l.57-1C205.71,2.2,209.16,3,210.81,4.34Zm20.4,28.44V18.44h-9.58V32.78Zm9.38.38V10.32h-8.4V14.6l.5-.38,6.39,3.65c.57.44.93.82.93,1.07s-.57.75-1.72,1.19V38.07l-6.39.69v5.41l3.59-3.65,4.45,3A102.21,102.21,0,0,0,240.59,33.16Zm12-14.22V6.35h-2.8V18.94Zm0,14.47V20.64h-2.8V33.41Z" style="fill:#fff"/><path d="M230.31,26A4.11,4.11,0,0,1,230,27.7a1.37,1.37,0,0,1-1.24,1,1.24,1.24,0,0,1-.78-.26,2.42,2.42,0,0,1-.53-.61,1.94,1.94,0,0,1-1.34.47,1.55,1.55,0,0,1-1.35-.66,2.47,2.47,0,0,1-.4-1.46,2.07,2.07,0,0,1,.54-1.45,1.9,1.9,0,0,1,1.46-.61,2.15,2.15,0,0,1,1.08.3v-.37h.77v3.33a.82.82,0,0,0,.13.48.5.5,0,0,0,.44.22c.32,0,.55-.27.71-.83a4.22,4.22,0,0,0,.16-1.19,3.52,3.52,0,0,0-.76-2.38,2.92,2.92,0,0,0-2.36-1,3.13,3.13,0,0,0-2.37,1,3.39,3.39,0,0,0-.93,2.39,3.45,3.45,0,0,0,.85,2.41,3.09,3.09,0,0,0,2.42,1,6.11,6.11,0,0,0,1.65-.21V30a7.67,7.67,0,0,1-1.65.17,3.79,3.79,0,0,1-2.9-1.18,4,4,0,0,1-1.06-2.85,3.92,3.92,0,0,1,1.11-2.82,3.81,3.81,0,0,1,2.87-1.2,3.61,3.61,0,0,1,2.83,1.13A4,4,0,0,1,230.31,26Zm-2.89,1.18V25.05a2.12,2.12,0,0,0-1-.25c-.85,0-1.27.46-1.27,1.37s.37,1.42,1.11,1.42A1.75,1.75,0,0,0,227.42,27.21Z" style="fill:#fff"/><path d="M225.36,27.3a1.81,1.81,0,0,1-.3-1.13h0a1.56,1.56,0,0,1,.35-1.1h0a1.3,1.3,0,0,1,1-.38h0a2.18,2.18,0,0,1,1,.26h0a.12.12,0,0,1,.07.1h0v2.16l0,.09a1.88,1.88,0,0,1-1.21.4h0a1.08,1.08,0,0,1-.91-.4Zm-.06-1.13c0,.92.32,1.3,1,1.31h0a1.62,1.62,0,0,0,1-.32h0v-2a2,2,0,0,0-.85-.2h0c-.79,0-1.13.37-1.15,1.25Z" style="fill:#fff"/></svg>